<svg xmlns="http://www.w3.org/2000/svg" xmlns:xlink="http://www.w3.org/1999/xlink" width="33" height="32" viewBox="0 0 33 32">
    <defs>
        <clipPath id="clip-path">
            <rect id="Rectangle_304" data-name="Rectangle 304" width="33" height="32" transform="translate(0.388 -0.31)" fill="#697f97" stroke="#697f97" stroke-width="0.5"/>
        </clipPath>
    </defs>
    <g id="Mask_Group_7" data-name="Mask Group 7" transform="translate(-0.388 0.31)" clip-path="url(#clip-path)">
        <path id="Icon_weather-day-cloudy" data-name="Icon weather-day-cloudy" d="M1.872,19.27a5.6,5.6,0,0,0,5.6,5.627H19.789a5.622,5.622,0,0,0,5.639-5.627A5.874,5.874,0,0,0,24.95,17a5.724,5.724,0,0,0,1.3-3.752,5.992,5.992,0,0,0-.466-2.319,5.946,5.946,0,0,0-5.491-3.638,5.919,5.919,0,0,0-4.411,1.978,6.08,6.08,0,0,0-3.069-.75,6.755,6.755,0,0,0-6.605,5.3A5.4,5.4,0,0,0,3.088,15.78,5.482,5.482,0,0,0,1.872,19.27Zm1.944,0A3.519,3.519,0,0,1,4.771,16.8,3.73,3.73,0,0,1,7.158,15.6l.568-.034a.189.189,0,0,0,.216-.2l.08-.614a4.865,4.865,0,0,1,1.6-3.081,4.589,4.589,0,0,1,3.195-1.239,4.725,4.725,0,0,1,3.263,1.251,4.536,4.536,0,0,1,1.557,3.081l.08.659a.218.218,0,0,0,.239.193h1.83a3.727,3.727,0,0,1,3.683,3.672,3.621,3.621,0,0,1-1.08,2.637A3.523,3.523,0,0,1,19.8,23.01H7.477a3.484,3.484,0,0,1-2.581-1.1A3.659,3.659,0,0,1,3.816,19.27ZM11.433,5.321a1.044,1.044,0,0,0,.273.716l.75.728a1.064,1.064,0,0,0,.728.284.838.838,0,0,0,.625-.3,1,1,0,0,0,.273-.7.862.862,0,0,0-.3-.671l-.671-.75a1.009,1.009,0,0,0-.693-.273.96.96,0,0,0-.7.284A.893.893,0,0,0,11.433,5.321ZM17.5,10.357a4.035,4.035,0,0,1,5.65.034,3.879,3.879,0,0,1,1.182,2.853,4.217,4.217,0,0,1-.58,2.092A5.434,5.434,0,0,0,19.789,13.7h-.364A6.78,6.78,0,0,0,17.5,10.357Zm1.853-6a.98.98,0,0,0,.261.7.874.874,0,0,0,.671.261.98.98,0,0,0,.7-.261.935.935,0,0,0,.261-.7V2.024a.9.9,0,0,0-.273-.671.925.925,0,0,0-.693-.261.936.936,0,0,0-.671.261.874.874,0,0,0-.261.671V4.355Zm6.275,2.6a.973.973,0,0,0,.25.7,1.175,1.175,0,0,0,.7.273,1.141,1.141,0,0,0,.671-.273l1.626-1.626a1.052,1.052,0,0,0,.273-.728.932.932,0,0,0-.944-.955.858.858,0,0,0-.659.273L25.882,6.253A1.093,1.093,0,0,0,25.632,6.958Zm.9,13.46a1,1,0,0,0,.284.716l.739.716a.858.858,0,0,0,.659.273.893.893,0,0,0,.682-.284.978.978,0,0,0,.273-.7.911.911,0,0,0-.273-.659l-.739-.739a.885.885,0,0,0-.648-.273.925.925,0,0,0-.682.273A.9.9,0,0,0,26.53,20.418ZM28.2,13.245a.872.872,0,0,0,.3.659.952.952,0,0,0,.693.273h2.319a.928.928,0,0,0,.659-.261.874.874,0,0,0,.261-.671.963.963,0,0,0-.261-.682.884.884,0,0,0-.659-.284H29.19a.935.935,0,0,0-.693.284A.9.9,0,0,0,28.2,13.245Z" transform="translate(-1.116 2.913)" fill="#697f97" stroke="#697f97" stroke-width="0.5"/>
    </g>
</svg>
