<svg xmlns="http://www.w3.org/2000/svg" xmlns:xlink="http://www.w3.org/1999/xlink" width="33" height="33" viewBox="0 0 33 33">
    <defs>
        <clipPath id="clip-path">
            <rect id="Rectangle_306" data-name="Rectangle 306" width="33" height="33" transform="translate(0.388 0.001)" fill="#697f97" stroke="#697f97" stroke-width="0.5"/>
        </clipPath>
    </defs>
    <g id="Mask_Group_9" data-name="Mask Group 9" transform="translate(-0.388 -0.001)" clip-path="url(#clip-path)">
        <path id="Icon_weather-rain-wind" data-name="Icon weather-rain-wind" d="M5.556,19.717a5.64,5.64,0,0,0,4.013,5.434.284.284,0,0,0,.273-.091l1.319-1.626a3.5,3.5,0,0,1-2.592-1.091,3.742,3.742,0,0,1-.125-5.127,3.5,3.5,0,0,1,2.387-1.182l.6-.08c.125,0,.182-.045.182-.148l.091-.625a4.735,4.735,0,0,1,1.58-3.1,4.9,4.9,0,0,1,6.5.011,4.562,4.562,0,0,1,1.557,3.092l.08.659a.229.229,0,0,0,.25.193h1.842a3.686,3.686,0,0,1,2.74,6.162A3.678,3.678,0,0,1,23.9,23.423a3.151,3.151,0,0,0-.557.068.561.561,0,0,0-.466.261L20.2,26.925a.886.886,0,0,0-.182.716.97.97,0,0,0,.352.648.823.823,0,0,0,.637.216.778.778,0,0,0,.693-.4l2.41-2.774a5.647,5.647,0,0,0,5.036-5.616,5.565,5.565,0,0,0-.443-2.194,5.459,5.459,0,0,0-2.99-2.99,5.525,5.525,0,0,0-2.194-.443h-.364a6.807,6.807,0,0,0-6.639-5.15,6.742,6.742,0,0,0-2.99.682,6.824,6.824,0,0,0-2.365,1.887A6.455,6.455,0,0,0,9.876,14.26,5.352,5.352,0,0,0,6.75,16.216,5.512,5.512,0,0,0,5.556,19.717ZM9.4,28.835a1.445,1.445,0,0,0,.068.341.868.868,0,0,0,.5.5.936.936,0,0,0,.762.023.863.863,0,0,0,.523-.512.884.884,0,0,0,.023-.739.827.827,0,0,0-.523-.489.847.847,0,0,0-.739-.034.965.965,0,0,0-.523.534A.831.831,0,0,0,9.4,28.835Zm2.1-2.774v.114a.893.893,0,0,0,.341.637,1.429,1.429,0,0,0,.7.216.9.9,0,0,0,.693-.375L15.879,23.5a1.078,1.078,0,0,0,.227-.75.9.9,0,0,0-.318-.6.888.888,0,0,0-.591-.25.651.651,0,0,0-.159.011,1,1,0,0,0-.637.375l-2.683,3.149A.951.951,0,0,0,11.5,26.061Zm.875,5.366a.75.75,0,0,0,.091.364.96.96,0,0,0,.5.534.892.892,0,0,0,.375.08.674.674,0,0,0,.352-.08.918.918,0,0,0,.534-.466.936.936,0,0,0,.023-.762.809.809,0,0,0-.512-.523.936.936,0,0,0-.762-.023.817.817,0,0,0-.512.512A.643.643,0,0,0,12.377,31.427Zm1.9-2.672v.125a.906.906,0,0,0,.352.625.98.98,0,0,0,.625.25.957.957,0,0,0,.716-.375l4.945-5.957a.86.86,0,0,0,.193-.591V22.7a.865.865,0,0,0-.307-.6.9.9,0,0,0-.591-.227h-.148a.777.777,0,0,0-.625.352L14.492,28.13A.973.973,0,0,0,14.276,28.755Zm3.99,1.307a1.008,1.008,0,0,0,.068.341.931.931,0,0,0,.523.534,1.413,1.413,0,0,0,.352.068.747.747,0,0,0,.387-.091.943.943,0,0,0,.546-1.239.868.868,0,0,0-.5-.5l-.409-.1c-.1.023-.216.045-.364.08a.827.827,0,0,0-.512.5A1.164,1.164,0,0,0,18.266,30.063Z" transform="translate(-1.011 -4.255)" fill="#697f97" stroke="#697f97" stroke-width="0.5"/>
    </g>
</svg>
