<svg xmlns="http://www.w3.org/2000/svg" xmlns:xlink="http://www.w3.org/1999/xlink" width="33" height="34" viewBox="0 0 33 34">
    <defs>
        <clipPath id="clip-path">
            <rect id="Rectangle_303" data-name="Rectangle 303" width="33" height="34" transform="translate(0.388 -0.457)" fill="#697f97" stroke="#697f97" stroke-width="0.5"/>
        </clipPath>
    </defs>
    <g id="Mask_Group_6" data-name="Mask Group 6" transform="translate(-0.388 0.457)" clip-path="url(#clip-path)">
        <path id="Icon_weather-day-rain-wind" data-name="Icon weather-day-rain-wind" d="M1.776,19.278a5.618,5.618,0,0,0,4.07,5.434.312.312,0,0,0,.273-.091l1.33-1.6a3.54,3.54,0,0,1-2.615-1.1,3.631,3.631,0,0,1-1.091-2.649A3.518,3.518,0,0,1,4.709,16.8a3.8,3.8,0,0,1,2.4-1.216l.557-.034c.148,0,.227-.068.227-.216l.08-.614a4.842,4.842,0,0,1,4.82-4.343,4.773,4.773,0,0,1,3.274,1.251,4.636,4.636,0,0,1,1.58,3.092l.08.671a.263.263,0,0,0,.25.193H19.84a3.574,3.574,0,0,1,2.592,1.08,3.523,3.523,0,0,1,1.091,2.592,3.627,3.627,0,0,1-.966,2.512A3.463,3.463,0,0,1,20.2,22.961a1.779,1.779,0,0,0-1.023.318l-2.49,3.206a.954.954,0,0,0-.182.716.925.925,0,0,0,.352.637.737.737,0,0,0,.682.239.945.945,0,0,0,.682-.409l2.183-2.8a5.333,5.333,0,0,0,2.558-.932A5.733,5.733,0,0,0,24.8,21.9a5.567,5.567,0,0,0,.671-2.66,5.487,5.487,0,0,0-.477-2.285,5.94,5.94,0,0,0,.864-6.093A5.921,5.921,0,0,0,22.66,7.682a5.9,5.9,0,0,0-6.73,1.5,6.258,6.258,0,0,0-3.092-.75,6.6,6.6,0,0,0-4.263,1.5,6.518,6.518,0,0,0-2.353,3.831,5.695,5.695,0,0,0-4.445,5.514ZM6.21,28.645a.885.885,0,0,0,.523.546.935.935,0,0,0,.762.011.869.869,0,0,0,.523-.534.807.807,0,0,0,0-.7,1,1,0,0,0-.512-.523.91.91,0,0,0-.75-.023.862.862,0,0,0-.512.523A.96.96,0,0,0,6.21,28.645ZM8.267,25.53v.125a.892.892,0,0,0,.341.625.942.942,0,0,0,.716.227.9.9,0,0,0,.648-.33l2.478-3.206a1,1,0,0,0,.216-.716.9.9,0,0,0-.33-.648.949.949,0,0,0-.716-.216,1,1,0,0,0-.682.352L8.495,24.928A.888.888,0,0,0,8.267,25.53Zm.58,5.525a1.445,1.445,0,0,0,.068.341.911.911,0,0,0,.523.523,1.192,1.192,0,0,0,.409.08,1.414,1.414,0,0,0,.352-.057.837.837,0,0,0,.5-.5.936.936,0,0,0,.023-.762.809.809,0,0,0-.512-.523.935.935,0,0,0-.762-.011.817.817,0,0,0-.512.512A.969.969,0,0,0,8.847,31.055Zm1.9-2.694v.114a.923.923,0,0,0,.375.659.76.76,0,0,0,.682.227.956.956,0,0,0,.682-.387l4.707-5.946a1.058,1.058,0,0,0,.193-.728,1.028,1.028,0,0,0-.352-.671.967.967,0,0,0-1.341.159l-4.729,5.98A.884.884,0,0,0,10.746,28.361Zm.659-23.067a.836.836,0,0,0,.307.671l.693.75a.978.978,0,0,0,.614.3.832.832,0,0,0,.693-.25.943.943,0,0,0,.341-.728.982.982,0,0,0-.273-.682l-.728-.739a.858.858,0,0,0-.659-.273,1,1,0,0,0-.7.273A.974.974,0,0,0,11.405,5.295Zm3.354,24.363a.7.7,0,0,0,.08.352,1.014,1.014,0,0,0,.909.614,1.445,1.445,0,0,0,.341-.068.881.881,0,0,0,.523-.523.91.91,0,0,0,.023-.75.817.817,0,0,0-.512-.512.936.936,0,0,0-.762-.023.863.863,0,0,0-.523.512A.958.958,0,0,0,14.759,29.657Zm2.728-19.338a4.078,4.078,0,0,1,2.819-1.1,3.938,3.938,0,0,1,2.876,1.171,3.814,3.814,0,0,1,1.194,2.831,4.018,4.018,0,0,1-.591,2.115,5.393,5.393,0,0,0-3.956-1.648h-.387A6.509,6.509,0,0,0,17.487,10.319ZM19.34,4.34a.886.886,0,0,0,.284.671.963.963,0,0,0,.682.273,1,1,0,0,0,.7-.273A.886.886,0,0,0,21.3,4.34V1.986A.939.939,0,0,0,21,1.3a.953.953,0,0,0-.693-.284.928.928,0,0,0-.682.284.928.928,0,0,0-.284.682Zm6.332,2.592a.954.954,0,0,0,.25.682,1.034,1.034,0,0,0,.693.3.8.8,0,0,0,.648-.3l1.705-1.648a.988.988,0,0,0-.023-1.387.939.939,0,0,0-.682-.3.965.965,0,0,0-.682.284L25.934,6.238A1.011,1.011,0,0,0,25.672,6.932Zm.887,13.528a.925.925,0,0,0,.273.682l.75.716a1,1,0,0,0,.614.307h.068a1.235,1.235,0,0,0,.7-.307.911.911,0,0,0,.273-.659,1.044,1.044,0,0,0-.273-.716l-.75-.7a.886.886,0,0,0-.671-.284.971.971,0,0,0-.989.966Zm1.705-7.242a.925.925,0,0,0,.273.682.875.875,0,0,0,.682.307h2.319a.99.99,0,0,0,.978-.989.886.886,0,0,0-.284-.671.97.97,0,0,0-.693-.273H29.219a.932.932,0,0,0-.955.944Z" transform="translate(-1.02 -0.162)" fill="#697f97" stroke="#697f97" stroke-width="0.5"/>
    </g>
</svg>
