<svg xmlns="http://www.w3.org/2000/svg" xmlns:xlink="http://www.w3.org/1999/xlink" width="33" height="32" viewBox="0 0 33 32">
    <defs>
        <clipPath id="clip-path">
            <rect id="Rectangle_302" width="33" height="32" transform="translate(0.388 0.396)" fill="#697f97" stroke="#697f97" stroke-width="0.5"/>
        </clipPath>
    </defs>
    <g id="Mask_Group_5" transform="translate(-0.388 -0.396)" clip-path="url(#clip-path)">
        <path id="Icon_weather-day-sunny" d="M5.244,16.873a.96.96,0,0,1,.284-.7A.982.982,0,0,1,6.21,15.9H8.529a.862.862,0,0,1,.659.284A1.068,1.068,0,0,1,9.2,17.567a.845.845,0,0,1-.659.284H6.222a.928.928,0,0,1-.682-.284A.946.946,0,0,1,5.244,16.873ZM8.5,24.752a1.053,1.053,0,0,1,.261-.693l1.671-1.626a.874.874,0,0,1,.671-.261.963.963,0,0,1,.682.261.85.85,0,0,1,.273.648,1.072,1.072,0,0,1-.273.728l-1.614,1.614a1.032,1.032,0,0,1-1.4,0A.918.918,0,0,1,8.5,24.752Zm0-15.734a1.053,1.053,0,0,1,.261-.693,1.092,1.092,0,0,1,.728-.284.956.956,0,0,1,.671.273l1.626,1.671a.882.882,0,0,1,.273.671.932.932,0,0,1-.955.955.882.882,0,0,1-.671-.273L8.768,9.711A.952.952,0,0,1,8.5,9.018Zm2.9,7.856a5.738,5.738,0,0,1,.8-2.956,5.937,5.937,0,0,1,2.171-2.171,5.832,5.832,0,0,1,5.252-.318A5.939,5.939,0,0,1,21.5,12.7a5.965,5.965,0,0,1,1.728,4.184,5.749,5.749,0,0,1-.8,2.967,5.962,5.962,0,0,1-2.16,2.16,5.93,5.93,0,0,1-5.934,0,5.962,5.962,0,0,1-2.16-2.16A6.04,6.04,0,0,1,11.394,16.873Zm1.933,0a4.017,4.017,0,0,0,4,4.024,4.037,4.037,0,0,0,4.024-4.024,3.832,3.832,0,0,0-1.182-2.808,3.9,3.9,0,0,0-2.842-1.16,3.844,3.844,0,0,0-2.819,1.16A3.789,3.789,0,0,0,13.327,16.873Zm3.024,8.845a.893.893,0,0,1,.284-.682.963.963,0,0,1,.682-.273.952.952,0,0,1,.693.273.925.925,0,0,1,.273.682V27.98a.96.96,0,0,1-.284.7.928.928,0,0,1-.682.284.91.91,0,0,1-.682-.284.96.96,0,0,1-.284-.7Zm0-17.621V5.778a.928.928,0,0,1,.284-.682.946.946,0,0,1,.693-.3.91.91,0,0,1,.682.284.928.928,0,0,1,.284.682V8.1a.862.862,0,0,1-.284.659.952.952,0,0,1-.682.261.983.983,0,0,1-.682-.261A.9.9,0,0,1,16.351,8.1ZM22.626,23.08a.893.893,0,0,1,.9-.9.963.963,0,0,1,.682.261l1.66,1.626a.989.989,0,0,1,.273.693.918.918,0,0,1-.273.671,1.012,1.012,0,0,1-1.364,0l-1.614-1.614A1.107,1.107,0,0,1,22.626,23.08Zm0-12.414A.881.881,0,0,1,22.888,10L24.5,8.324a.956.956,0,0,1,.671-.273.893.893,0,0,1,.682.284.928.928,0,0,1,.284.682.96.96,0,0,1-.273.7l-1.66,1.626a1,1,0,0,1-.682.273.826.826,0,0,1-.637-.273A.963.963,0,0,1,22.626,10.666ZM25.2,16.873a1.017,1.017,0,0,1,.273-.7.885.885,0,0,1,.648-.273h2.3a.965.965,0,0,1,.682,1.66.928.928,0,0,1-.682.284h-2.3a.845.845,0,0,1-.659-.284A.983.983,0,0,1,25.2,16.873Z" transform="translate(-0.699 -0.457)" fill="#697f97" stroke="#697f97" stroke-width="0.5"/>
    </g>
</svg>
